<?xml version="1.0" encoding="utf-8"?>
<!-- Generator: Adobe Illustrator 15.0.0, SVG Export Plug-In . SVG Version: 6.00 Build 0)  -->
<!DOCTYPE svg PUBLIC "-//W3C//DTD SVG 1.1//EN" "http://www.w3.org/Graphics/SVG/1.1/DTD/svg11.dtd">
<svg version="1.1" id="Layer_1" xmlns="http://www.w3.org/2000/svg" xmlns:xlink="http://www.w3.org/1999/xlink" x="0px" y="0px"
	 width="74.094px" height="42.088px" viewBox="4.875 2.578 74.094 42.088" enable-background="new 4.875 2.578 74.094 42.088"
	 xml:space="preserve">
<path stroke="#000000" stroke-width="4" stroke-linecap="round" d="M21.262,17.232c-5.538,4.998-9.331,12.559-9.331,22.894
	c0,1.381-1.119,2.5-2.5,2.5s-2.5-1.119-2.5-2.5c0-11.665,4.332-20.604,10.981-26.606c6.606-5.962,15.351-8.894,24.019-8.894
	c8.667,0,17.411,2.932,24.019,8.894c6.648,6.002,10.98,14.941,10.98,26.606c0,1.381-1.119,2.5-2.5,2.5s-2.5-1.119-2.5-2.5
	c0-10.335-3.793-17.896-9.33-22.894c-5.582-5.038-13.087-7.606-20.669-7.606S26.843,12.195,21.262,17.232z"/>
</svg>
