<svg width="800" height="800" viewBox="0 0 800 800" fill="none" xmlns="http://www.w3.org/2000/svg">
<path fill-rule="evenodd" clip-rule="evenodd" d="M385.998 117.917H725.5L751 144.375V329.583H700.5V276.137H384.997L341.998 321.645L324.499 329.583H99.999V355.512V567.179V647.083H350.5V700H76L51 673.542V303.125V91.4583L76 65H326L343.499 72.9386L385.998 117.917ZM374.999 223.75H700L700.5 171.363H375.5L357.5 163.424L315.002 118.446H100.5V277.196H314.501L357.5 231.689L374.999 223.75Z" fill="black"/>
<path d="M465 400H400V700H465V400Z" fill="black"/>
<path d="M500.5 699.5V400.5H564.5V699.5H500.5Z" fill="black" stroke="black"/>
<path d="M661.285 395.365L600.205 417.596L702.811 699.504L763.891 677.273L661.285 395.365Z" fill="black"/>
</svg>
