<svg width="800" height="800" viewBox="0 0 800 800" fill="none" xmlns="http://www.w3.org/2000/svg">
<path fill-rule="evenodd" clip-rule="evenodd" d="M551.318 47.0583C541.577 19.7183 515.694 0 485.059 0H296.824C266.188 0 240.306 19.7179 230.565 47.0583H38V800H743.883V47.0583H551.318ZM696.823 752.941H85.0592V94.1175H226.235V188.236H555.647V94.1175H696.823V752.941ZM273.294 94.1175V70.5883C273.294 57.6004 283.835 47.0588 296.823 47.0588H485.059C498.048 47.0588 508.588 57.6004 508.588 70.5887V141.177H273.294V94.1175Z" fill="black"/>
<path d="M555.5 411.048H226.168L226.167 364H555.5V411.048Z" fill="black"/>
<path d="M555.5 598.99H226.168L226.167 551.895H555.5V598.99Z" fill="black"/>
<path d="M461.405 504.995H226.168L226.167 457.948H461.405V504.995Z" fill="black"/>
</svg>
