<svg width="100" height="100" viewBox="0 0 100 100" fill="none" xmlns="http://www.w3.org/2000/svg">
<path fill-rule="evenodd" clip-rule="evenodd" d="M28.8313 43.1058C23.2934 48.1042 19.5 55.6651 19.5 65.9999C19.5 67.3806 18.3807 68.4999 17 68.4999C15.6193 68.4999 14.5 67.3806 14.5 65.9999C14.5 54.3348 18.8317 45.3957 25.4812 39.3941C32.0876 33.4314 40.8319 30.5 49.5 30.5C58.1681 30.5 66.9124 33.4314 73.5188 39.3941C80.1683 45.3958 84.5 54.3348 84.5 66C84.5 67.3807 83.3807 68.5 82 68.5C80.6193 68.5 79.5 67.3807 79.5 66C79.5 55.6652 75.7067 48.1042 70.1687 43.1059C64.5876 38.0686 57.0819 35.5 49.5 35.5C41.9181 35.5 34.4124 38.0686 28.8313 43.1058Z" fill="black" stroke="black" stroke-width="4" stroke-linecap="round"/>
</svg>
